<svg xmlns="http://www.w3.org/2000/svg" width="107.594" height="14.469"><path data-name="LOGO LOGO" d="M2.443.224H-.006V14.2h9v-1.966H2.44V.224zm14-.234c-3.565 0-6 2.629-6 7.256 0 4.61 2.394 7.22 5.977 7.22s6-2.647 6-7.256c.005-4.627-2.389-7.22-5.973-7.22zm0 1.873c2.053 0 3.4 1.782 3.4 5.365 0 3.565-1.35 5.366-3.4 5.366s-3.421-1.8-3.421-5.366c.004-3.583 1.372-5.365 3.425-5.365zm19.154 2.215a5.062 5.062 0 0 0-5.293-4.087c-3.584 0-6.086 2.647-6.086 7.256 0 4.627 2.358 7.22 5.833 7.22a3.981 3.981 0 0 0 3.746-2.215l.27 2.035h1.62V6.922h-5.528v1.872h3.259c-.216 2.233-1.152 3.8-3.114 3.8-2.125 0-3.512-1.819-3.512-5.366 0-3.565 1.423-5.365 3.548-5.365 1.6 0 2.556 1.008 2.9 2.773zm8.368-4.087c-3.565 0-6 2.629-6 7.256 0 4.61 2.394 7.22 5.977 7.22s6-2.647 6-7.256c.005-4.628-2.39-7.221-5.973-7.221zm0 1.873c2.053 0 3.4 1.782 3.4 5.365 0 3.565-1.35 5.366-3.4 5.366s-3.421-1.8-3.421-5.366c.004-3.584 1.373-5.366 3.425-5.366zM60.094.224h-2.448V14.2h9v-1.966h-6.552V.224zm14-.234c-3.565 0-6 2.629-6 7.256 0 4.61 2.395 7.22 5.978 7.22s6-2.647 6-7.256c.007-4.627-2.388-7.22-5.971-7.22zm0 1.873c2.053 0 3.4 1.782 3.4 5.365 0 3.565-1.35 5.366-3.4 5.366s-3.421-1.8-3.421-5.366c.007-3.583 1.375-5.365 3.428-5.365zm19.154 2.215a5.063 5.063 0 0 0-5.294-4.087c-3.583 0-6.086 2.647-6.086 7.256 0 4.627 2.359 7.22 5.834 7.22a3.98 3.98 0 0 0 3.745-2.215l.27 2.035h1.621V6.922H87.81v1.872h3.259c-.216 2.233-1.152 3.8-3.115 3.8-2.125 0-3.511-1.819-3.511-5.366 0-3.565 1.422-5.365 3.547-5.365 1.6 0 2.557 1.008 2.9 2.773zm8.368-4.087c-3.565 0-6 2.629-6 7.256 0 4.61 2.395 7.22 5.978 7.22s6-2.647 6-7.256c.007-4.628-2.388-7.221-5.971-7.221zm0 1.873c2.052 0 3.4 1.782 3.4 5.365 0 3.565-1.351 5.366-3.4 5.366s-3.421-1.8-3.421-5.366c.007-3.584 1.375-5.366 3.428-5.366z" fill="#fff" fill-rule="evenodd"/></svg>