<svg xmlns="http://www.w3.org/2000/svg" width="30" height="30"><circle data-name="楕円形 2" cx="15" cy="15" r="15" fill="#eb6100"/><path data-name="シェイプ 5" d="M7 8h17v14H7V8zm1.69 1.71v10.58h13.62V9.71H8.69zm4.93 1.532a1.187 1.187 0 0 1 1.23.726 1.178 1.178 0 1 1-1.5-.662zm2.98 1.951a.75.75 0 0 1 .49.146 1.836 1.836 0 0 1 .37.508c.17.271.35.543.53.814q1.5 2.331 3.01 4.662v.008H10.12a.028.028 0 0 0 .01-.025l1.8-2.814a4.54 4.54 0 0 1 .7-1.032.777.777 0 0 1 .87.016 1.1 1.1 0 0 1 .19.242.649.649 0 0 0 .88.088 2.385 2.385 0 0 0 .42-.629c.26-.392.52-.785.77-1.177a2.524 2.524 0 0 1 .46-.653 1.436 1.436 0 0 1 .38-.154z" fill="#fff" fill-rule="evenodd"/></svg>