<svg xmlns="http://www.w3.org/2000/svg" width="17" height="15"><path d="M0 0h17v15H0V0zm1.442 1.466V5.24h3.441a2.8 2.8 0 0 1 .558-.518 5.081 5.081 0 0 1 4.605-.891 5.369 5.369 0 0 1 1.688.907l.534.5h3.29V1.464H1.442zm10.738 1.15h2.534q0 .924-.008 1.847H12.18V2.616zm-3.823 2.4l-.375.04a4.457 4.457 0 0 0-.765.21 3.721 3.721 0 0 0-2.19 2.406 3.772 3.772 0 0 0 2.047 4.536 3.383 3.383 0 0 0 1.7.324 7.058 7.058 0 0 0 .924-.17 3.677 3.677 0 0 0 2.262-2.066 4.448 4.448 0 0 0 .247-.8 3.9 3.9 0 0 0-.247-2.219 3.638 3.638 0 0 0-3.603-2.263zm.087 1.312a2.333 2.333 0 0 1 2.326 1.474 2.615 2.615 0 0 1 .024 1.911 2.437 2.437 0 0 1-1.465 1.385 3.962 3.962 0 0 1-.654.122 2.082 2.082 0 0 1-1.067-.211 2.458 2.458 0 0 1 .111-4.528l.486-.129zm-6.094.4a.811.811 0 0 0-.645.526.78.78 0 1 0 .645-.523z" fill="#f69090" fill-rule="evenodd"/></svg>