<svg xmlns="http://www.w3.org/2000/svg" width="30" height="30"><path d="M14.54 0a14.9 14.9 0 0 1 14.47 9.548 15.5 15.5 0 0 1-.04 11.022 14.939 14.939 0 0 1-9.54 8.747 21.257 21.257 0 0 1-2.6.548l-1.3.1a7.615 7.615 0 0 1-1.89-.07l-1.33-.168a17.754 17.754 0 0 1-3.17-.969 14.705 14.705 0 0 1-8.46-9.436 14.521 14.521 0 0 1-.51-6.459 16.227 16.227 0 0 1 .63-2.668 15.144 15.144 0 0 1 9-9.267 18.39 18.39 0 0 1 3.01-.772L13.98.03zm3.54 9.042c-.32.124-.68.1-.98.225a3.015 3.015 0 0 0-1.76 3.454 5.924 5.924 0 0 1-2.05-.365 7.94 7.94 0 0 1-4.13-2.752l-.03.014a6.933 6.933 0 0 0-.37 1.081 2.961 2.961 0 0 0 1.31 2.878v.028a3.032 3.032 0 0 1-1.35-.379 2.945 2.945 0 0 0 2.4 2.963.033.033 0 0 1-.01.028 6.782 6.782 0 0 1-1.32.042 2.916 2.916 0 0 0 1.93 1.938c.24.077.6.044.85.14-.01.019-.03.038-.04.057l-.66.421a6.164 6.164 0 0 1-1.62.646 5.022 5.022 0 0 1-1.23.154l-.86-.014h.03a6.19 6.19 0 0 0 2.15.969 12.23 12.23 0 0 0 1.36.295 8.009 8.009 0 0 0 3.38-.253 8.177 8.177 0 0 0 5.39-4.62 10.948 10.948 0 0 0 .75-2.625c.04-.2.01-1.306.07-1.376.14-.108.27-.216.41-.323a4.368 4.368 0 0 0 1.04-1.194 11.684 11.684 0 0 1-1.69.45c.01-.014.01-.028.02-.042a2.737 2.737 0 0 0 1.27-1.573.013.013 0 0 0-.01-.014 4.923 4.923 0 0 1-1.9.688 3 3 0 0 0-2.35-.939z" fill="#00a0e9" fill-rule="evenodd"/></svg>