<svg xmlns="http://www.w3.org/2000/svg" width="30" height="30"><path d="M14.54 0a14.905 14.905 0 0 1 14.47 9.548 15.5 15.5 0 0 1-.05 11.022 14.9 14.9 0 0 1-9.53 8.747 21.257 21.257 0 0 1-2.6.548l-1.31.1a7.534 7.534 0 0 1-1.88-.07l-1.34-.168a17.9 17.9 0 0 1-3.16-.969 14.705 14.705 0 0 1-8.46-9.436 14.521 14.521 0 0 1-.51-6.459 16.227 16.227 0 0 1 .63-2.668 15.144 15.144 0 0 1 9-9.267 18.132 18.132 0 0 1 3.01-.772L13.98.03zm-1.5 12.735h-2.59v2.977h2.59v7.694h3.09v-7.694h2.59c.12-.992.25-1.985.38-2.977h-2.97c-.01-1.034-.2-2.643.39-3.1.53-.41 1.76-.286 2.69-.281V6.686l-1.49-.112h-.9c-.37.056-.68.02-1 .1a3.43 3.43 0 0 0-2.69 2.766 16.237 16.237 0 0 0-.09 3.297z" fill="#3351a1" fill-rule="evenodd"/></svg>