<svg xmlns="http://www.w3.org/2000/svg" width="12" height="15"><path d="M3.914 15H2.2l-.059-7.5C1.88 6.64.841 6.412.427 5.684-.134 4.699-.061 1.667.19.294L.545.001a1.257 1.257 0 0 1 .887.234c.209.978-.217 2.824.177 3.808l.118.176a.831.831 0 0 0 .591-.176c-.026-.944-.31-3.549.3-3.925a.889.889 0 0 1 .768-.059l.355.235q.06 1.874.118 3.749l.119.176a.832.832 0 0 0 .591-.176q.028-1.845.059-3.691l.355-.351.591.058c.654.345.59 3.334.413 4.394-.314 1.892-1.747 1.871-2.069 3.164V15zm8.04 0H10.3v-4.16c-.254-1.463-1.406-1.851-1.774-3.163-.609-2.174.986-7.648 2.72-7.675 1.029.529.709 2.365.709 3.867V15z" fill="#22ac38" fill-rule="evenodd"/></svg>