<svg xmlns="http://www.w3.org/2000/svg" width="17" height="14.875"><path d="M11.762 2.918h1.456v11.958H3.77V2.918h1.463V1.479a3.324 3.324 0 0 1 .016-.674 1.02 1.02 0 0 1 .318-.543A2.31 2.31 0 0 1 7.007.04h2.966a2.316 2.316 0 0 1 1.447.222 1.033 1.033 0 0 1 .311.5 3.016 3.016 0 0 1 .031.723v1.431zM6.394 1.241v1.677H10.6V1.241H6.393zM2.617 2.918v11.958c-.943.006-1.916.133-2.338-.419a1.389 1.389 0 0 1-.255-.551 3.48 3.48 0 0 1-.016-.674v-8.71a2.962 2.962 0 0 1 .04-.74 1.472 1.472 0 0 1 .278-.5c.389-.491 1.434-.366 2.291-.364zm11.754 0c.967 0 1.924-.136 2.354.436.383.51.254 1.713.254 2.608v6c0 .908.125 1.984-.27 2.5-.425.554-1.394.422-2.338.419V2.918zM5.48 4.407a.475.475 0 0 0-.3.247 1.75 1.75 0 0 0-.023.51q0 .607.008 1.217a2.149 2.149 0 0 0 .572.666L7.2 8.568c.164.17.442.573.78.346l1.2-1.242a1.071 1.071 0 0 0 .4-.518 1.106 1.106 0 0 0-.493-.724l-1.4-1.447a2.241 2.241 0 0 0-.605-.568zm.628.732a.305.305 0 1 1-.183.115.441.441 0 0 1 .183-.115z" fill="#ef9051" fill-rule="evenodd"/></svg>